<svg id="Layer_1" data-name="Layer 1" xmlns="http://www.w3.org/2000/svg" viewBox="0 0 50 50"><defs><style>.cls-1{fill:#595a5c;}</style></defs><title>Compliance</title><path class="cls-1" d="M22.53,41.09H16V34.53h6.55ZM18.17,38.9h2.18V36.72H18.17Z"/><rect class="cls-1" x="24.72" y="34.53" width="8.73" height="2.18"/><rect class="cls-1" x="24.72" y="38.9" width="8.73" height="2.18"/><polygon class="cls-1" points="18.56 32.52 15.79 29.7 17.34 28.17 18.58 29.43 21.65 26.4 23.18 27.95 18.56 32.52"/><rect class="cls-1" x="24.7" y="25.8" width="8.73" height="2.18"/><rect class="cls-1" x="24.7" y="30.17" width="8.73" height="2.18"/><path class="cls-1" d="M22.52,23.62H16V17.06h6.55Zm-4.37-2.19h2.19V19.25H18.15Z"/><rect class="cls-1" x="24.7" y="17.06" width="8.73" height="2.18"/><rect class="cls-1" x="24.7" y="21.43" width="8.73" height="2.18"/><polygon class="cls-1" points="41.38 49.2 8.62 49.2 8.62 7.71 15.57 7.71 15.57 9.9 10.81 9.9 10.81 47.02 39.19 47.02 39.19 9.9 34.91 9.9 34.91 7.71 41.38 7.71 41.38 49.2"/><path class="cls-1" d="M32.75,12.08h-15V3.83H21.3a4.13,4.13,0,0,1,8,0h3.49ZM20,9.9h10.6V6H27.22V4.93a1.95,1.95,0,1,0-3.89,0V6H20Z"/></svg>