<svg id="Layer_1" data-name="Layer 1" xmlns="http://www.w3.org/2000/svg" viewBox="0 0 50 50"><defs><style>.cls-1{fill:#595a5c;}</style></defs><title>Customization</title><path class="cls-1" d="M16.16,46.39l-1.7-1.15,2.45-3.62a4.81,4.81,0,0,1,1.55-1.46l10.6-6.07,2.39-1.45a1.23,1.23,0,0,0,.35-1.45,1,1,0,0,0-1.26-.57l-4.13,2.21-5.35-.76A2.49,2.49,0,0,1,18.61,30l-.85-4.85a3.35,3.35,0,0,1,.11-1.6l1.37-4.27a3.22,3.22,0,0,1,1.43-1.79l2-1.2a1,1,0,0,0-.06-1.8.85.85,0,0,0-.82,0l-2.42,1.44a7.08,7.08,0,0,0-2.1,2L13.8,22.84l-3.26-11.3a.87.87,0,0,0-.43-.5A.89.89,0,0,0,9.43,11a.87.87,0,0,0-.52.44.89.89,0,0,0-.06.68L9.51,15l-2,.54a.89.89,0,0,0-1.12-.58A.9.9,0,0,0,5.82,16l1.1,4.51-2,.55a.89.89,0,0,0-1.12-.59.87.87,0,0,0-.52.44.85.85,0,0,0-.06.68l3.63,13.3a4.88,4.88,0,0,1-.38,3L5.05,41l-1.86-.89,1.44-3a2.74,2.74,0,0,0,.23-1.69L1.26,22.2a2.94,2.94,0,0,1,2-3.66,3,3,0,0,1,1.07-.13l-.44-1.83a2.92,2.92,0,0,1,2-3.63,2.85,2.85,0,0,1,1.12-.13l0-.18A2.94,2.94,0,0,1,8.82,9a2.87,2.87,0,0,1,2.24.2A3,3,0,0,1,12.52,11l2.07,7.2,1-1.41a9,9,0,0,1,2.73-2.62l2.42-1.45a2.94,2.94,0,0,1,2.75-.09A3,3,0,0,1,23.72,18l-2,1.19a1.18,1.18,0,0,0-.52.66l-1.37,4.27a1.3,1.3,0,0,0,0,.62l.85,4.85a.6.6,0,0,0,.53.43L26,30.7l3.64-1.94a3,3,0,0,1,2.44,0,3,3,0,0,1,1.6,1.68A3.25,3.25,0,0,1,32.5,34.4c-.77.46-2.39,1.46-2.39,1.46L19.49,41.94a2.79,2.79,0,0,0-.88.83Z"/><rect class="cls-1" x="5.57" y="19.67" width="2.06" height="8.01" transform="translate(-5.21 2.12) rotate(-13.14)"/><rect class="cls-1" x="8.45" y="14.04" width="2.06" height="10.47" transform="translate(-4.21 2.72) rotate(-13.39)"/><path class="cls-1" d="M29.7,26.41a4.61,4.61,0,0,1-1.1-.14,4.41,4.41,0,0,1-2.74-2.05,4.46,4.46,0,1,1,7.67-4.56h0a4.47,4.47,0,0,1-3.83,6.75Zm0-6.88a2.41,2.41,0,1,0,2.07,1.18h0A2.4,2.4,0,0,0,29.69,19.53Z"/><rect class="cls-1" x="24.26" y="23.58" width="1.91" height="2.06" transform="translate(-9.04 16.36) rotate(-30.77)"/><rect class="cls-1" x="33.22" y="18.24" width="1.91" height="2.06" transform="translate(-5.05 20.2) rotate(-30.78)"/><rect class="cls-1" x="27.46" y="25.97" width="1.91" height="2.06" transform="translate(-4.75 47.89) rotate(-75.75)"/><rect class="cls-1" x="30.02" y="15.86" width="1.91" height="2.06" transform="translate(6.98 42.75) rotate(-75.75)"/><rect class="cls-1" x="31.34" y="25.47" width="2.06" height="1.91" transform="translate(-8.96 20.3) rotate(-30.8)"/><rect class="cls-1" x="26" y="16.51" width="2.06" height="1.91" transform="translate(-5.13 16.3) rotate(-30.8)"/><rect class="cls-1" x="33.72" y="22.27" width="2.06" height="1.91" transform="translate(3.71 51.21) rotate(-75.79)"/><rect class="cls-1" x="23.61" y="19.71" width="2.06" height="1.91" transform="translate(-1.44 39.47) rotate(-75.79)"/><path class="cls-1" d="M40.8,18.06a6.5,6.5,0,0,1-1.57-.2A6.38,6.38,0,1,1,47,13.25h0A6.4,6.4,0,0,1,40.8,18.06Zm0-10.7a4.31,4.31,0,1,0,1.06.13A4.33,4.33,0,0,0,40.8,7.36Z"/><rect class="cls-1" x="33.16" y="8.76" width="2.06" height="2.5" transform="matrix(0.25, -0.97, 0.97, 0.25, 16.09, 40.69)"/><rect class="cls-1" x="46.37" y="12.11" width="2.06" height="2.5" transform="translate(22.81 56.02) rotate(-75.78)"/><rect class="cls-1" x="33.69" y="14.14" width="2.5" height="2.06" transform="translate(-2.84 20.01) rotate(-30.77)"/><rect class="cls-1" x="45.4" y="7.16" width="2.5" height="2.06" transform="translate(2.38 25.02) rotate(-30.77)"/><rect class="cls-1" x="37.87" y="17.26" width="2.5" height="2.06" transform="translate(11.8 51.73) rotate(-75.8)"/><rect class="cls-1" x="41.22" y="4.05" width="2.5" height="2.06" transform="translate(27.14 45) rotate(-75.8)"/><rect class="cls-1" x="43.26" y="16.29" width="2.06" height="2.5" transform="translate(-2.74 25.13) rotate(-30.77)"/><rect class="cls-1" x="36.28" y="4.58" width="2.06" height="2.5" transform="translate(2.27 19.91) rotate(-30.77)"/></svg>