<svg id="Layer_1" data-name="Layer 1" xmlns="http://www.w3.org/2000/svg" viewBox="0 0 50 50"><defs><style>.cls-1{fill:none;stroke:#595a5c;stroke-miterlimit:10;stroke-width:2px;}.cls-2{fill:#595a5c;}</style></defs><title>Deboss</title><path class="cls-1" d="M39,28.9l7.57-2.39a1.13,1.13,0,0,0,0-2L25,16.69,3.39,24.49a1.13,1.13,0,0,0,0,2L11,28.9"/><path class="cls-1" d="M9,26.83l16-5.76,16,5.76a.83.83,0,0,1,0,1.47l-16,5-15.95-5A.83.83,0,0,1,9,26.83Z"/><polygon class="cls-2" points="30.42 26.23 25 31.57 19.58 26.23 30.42 26.23"/><rect class="cls-2" x="22.26" y="17.28" width="5.48" height="9.52" transform="translate(50 44.08) rotate(180)"/></svg>