<svg id="Layer_1" data-name="Layer 1" xmlns="http://www.w3.org/2000/svg" viewBox="0 0 50 50"><defs><style>.cls-1{fill:none;stroke:#595a5c;stroke-miterlimit:10;stroke-width:2px;}.cls-2{fill:#595a5c;}</style></defs><title>Emboss</title><path class="cls-1" d="M39.32,25.44,25,30.61,10.68,25.44,3,27.88a1.16,1.16,0,0,0,0,2.07l22.08,8,22.08-8a1.16,1.16,0,0,0,0-2.07Z"/><path class="cls-1" d="M39.48,25.38,25,30.61,10.52,25.38a.74.74,0,0,1,0-1.32L25,19.5l14.46,4.56A.74.74,0,0,1,39.48,25.38Z"/><polygon class="cls-2" points="19.46 17.54 25 12.08 30.54 17.54 19.46 17.54"/><rect class="cls-2" x="22.2" y="16.76" width="5.6" height="12.8"/></svg>