<svg id="Layer_1" data-name="Layer 1" xmlns="http://www.w3.org/2000/svg" viewBox="0 0 50 50"><defs><style>.cls-1{fill:none;stroke:#595a5c;stroke-miterlimit:10;stroke-width:1.81px;}.cls-2{fill:#595a5c;}</style></defs><title>Foil Stamp</title><path class="cls-1" d="M11.84,31v3.61a.27.27,0,0,0,.2.25,59.3,59.3,0,0,0,25.91,0,.27.27,0,0,0,.2-.25V31a.25.25,0,0,0-.31-.24,59.21,59.21,0,0,1-25.69,0A.25.25,0,0,0,11.84,31Z"/><path class="cls-2" d="M30.11,28.65v2.11H19.88V28.65c-5.11.29-8.73,1-8.73,1.82,0,1.07,6.2,2,13.85,2s13.85-.88,13.85-2C38.85,29.64,35.22,28.94,30.11,28.65Z"/><path class="cls-2" d="M38.85,40.1h0a.31.31,0,0,0-.07-.17l0-.06-.13-.12-.09-.06-.22-.13-.1,0-.38-.15-.23-.07-.27-.08-.3-.08-.26-.06c-.45-.1-1-.2-1.52-.29l-.17,0-.62-.09-.13,0c-1-.12-2.07-.23-3.26-.31h0c-1.83-.13-3.87-.2-6-.2s-4.21.07-6,.2h0c-1.19.08-2.28.19-3.25.31l-.14,0-.61.09-.18,0c-.56.08-1.06.18-1.5.28l-.27.06-.3.08-.27.08-.23.07-.39.15-.09,0-.22.13-.09.06-.13.12,0,.06a.31.31,0,0,0-.07.17h0a.34.34,0,0,0,.07.18l0,0,.13.12.09.07.22.12.1,0,.38.15.23.07.27.08.3.07.26.07c.45.1.95.19,1.52.28l.18,0,.61.08.13,0c1,.12,2.07.23,3.26.31h0c1.83.13,3.87.2,6,.2s4.21-.07,6-.2h0c1.19-.08,2.28-.19,3.24-.31l.15,0,.61-.08.18,0c.56-.09,1.06-.18,1.5-.28l.27-.07.3-.07.27-.08.23-.07.39-.15a.26.26,0,0,1,.09,0l.22-.12.09-.07.13-.12,0,0a.34.34,0,0,0,.07-.18Z"/><path class="cls-1" d="M27.94,27.28H22.05l-.79-15.39A3.74,3.74,0,0,1,25,8h0a3.74,3.74,0,0,1,3.74,3.94Z"/><path class="cls-1" d="M20.38,27.28h9.23a.5.5,0,0,1,.5.5v3a0,0,0,0,1,0,0H19.88a0,0,0,0,1,0,0v-3A.5.5,0,0,1,20.38,27.28Z"/></svg>