<svg id="Layer_1" data-name="Layer 1" xmlns="http://www.w3.org/2000/svg" viewBox="0 0 50 50"><defs><style>.cls-1{fill:none;stroke:#595a5c;stroke-miterlimit:10;stroke-width:1.81px;}</style></defs><title>Gaufrage-placeholder</title><path class="cls-1" d="M25,32.2c-5.37-1.81-9-3.17-13.15-4.94-2.41.6-5,1.15-8.11,1.79A160.87,160.87,0,0,0,25,37.71a160.87,160.87,0,0,0,21.26-8.66c-3.14-.64-5.69-1.19-8.11-1.79C34.05,29,30.37,30.39,25,32.2Z"/><path class="cls-1" d="M25,26.7A162.24,162.24,0,0,1,3.74,18,146.28,146.28,0,0,0,25,12.29,146.28,146.28,0,0,0,46.26,18,162.24,162.24,0,0,1,25,26.7Z"/><path class="cls-1" d="M25,26.7c-5.37-1.82-9-3.18-13.15-4.95-2.41.6-5,1.16-8.11,1.79A159.52,159.52,0,0,0,25,32.2a159.52,159.52,0,0,0,21.26-8.66c-3.14-.63-5.69-1.19-8.11-1.79C34.05,23.52,30.37,24.88,25,26.7Z"/></svg>