<svg id="Layer_1" data-name="Layer 1" xmlns="http://www.w3.org/2000/svg" viewBox="0 0 50 50"><defs><style>.cls-1{fill:#595a5c;}</style></defs><title>Noise</title><path class="cls-1" d="M11.24,32.9H6a4.81,4.81,0,0,1-4.81-4.81V21.9A4.81,4.81,0,0,1,6,17.1h5.25ZM6,18.94a3,3,0,0,0-3,3v6.19a3,3,0,0,0,3,3H9.4V18.94Z"/><path class="cls-1" d="M31.73,41.91l-18.09-9V17.07l18.09-9ZM15.48,31.79,29.9,39V11.05L15.48,18.21Z"/><polygon class="cls-1" points="45.73 39.87 34.15 32.52 34.79 30.87 46.37 38.22 45.73 39.87"/><polygon class="cls-1" points="34.79 19.13 34.15 17.48 45.73 10.13 46.37 11.78 34.79 19.13"/><rect class="cls-1" x="34.54" y="24.08" width="14.28" height="1.84"/></svg>