<svg id="Layer_1" data-name="Layer 1" xmlns="http://www.w3.org/2000/svg" viewBox="0 0 50 50"><defs><style>.cls-1{fill:#595a5c;}</style></defs><title>Performance</title><path class="cls-1" d="M44.47,37.19H42.32V32.41a19.36,19.36,0,0,0-38.71,0v4.78H1.46V32.41a21.51,21.51,0,1,1,43,0Z"/><polygon class="cls-1" points="43.39 39.1 38.25 33.95 39.77 32.43 43.39 36.05 47.02 32.43 48.54 33.95 43.39 39.1"/><rect class="cls-1" x="21.89" y="15.39" width="2.15" height="2.29"/><rect class="cls-1" x="13.95" y="17.52" width="2.15" height="2.29" transform="translate(-7.32 10.02) rotate(-30.02)"/><rect class="cls-1" x="8.14" y="23.33" width="2.16" height="2.29" transform="translate(-16.59 20.24) rotate(-60.05)"/><rect class="cls-1" x="5.95" y="31.33" width="2.29" height="2.15"/><rect class="cls-1" x="35.56" y="23.4" width="2.29" height="2.15" transform="translate(-7.32 21.65) rotate(-30.02)"/><rect class="cls-1" x="29.75" y="17.59" width="2.29" height="2.15" transform="translate(-0.72 36.08) rotate(-59.98)"/><rect class="cls-1" x="21.43" y="25.26" width="10.27" height="2.15" transform="matrix(0.49, -0.87, 0.87, 0.49, -9.45, 36.47)"/><path class="cls-1" d="M23,36.05a3.37,3.37,0,1,1,3.37-3.37A3.38,3.38,0,0,1,23,36.05Zm0-4.58a1.22,1.22,0,0,0,0,2.43,1.22,1.22,0,1,0,0-2.43Z"/></svg>