<svg id="Layer_1" data-name="Layer 1" xmlns="http://www.w3.org/2000/svg" viewBox="0 0 93.6 93.6"><defs><style>.cls-1{fill:#fff;}</style></defs><title>Perrone_icon-</title><path class="cls-1" d="M64.59,42.17a3.51,3.51,0,0,1,1.66,1.93,3.74,3.74,0,0,1,0,2.47,3.47,3.47,0,0,1-1.66,1.93l-27.15,16A3.47,3.47,0,0,1,35,65a3.76,3.76,0,0,1-2.2-1.24,3.49,3.49,0,0,1-.89-2.39V29.29a3.44,3.44,0,0,1,.93-2.5,3.76,3.76,0,0,1,2.24-1.16,3.38,3.38,0,0,1,2.39.5Zm-29,18.36a.43.43,0,0,0,.23.43.62.62,0,0,0,.46,0L62.05,45.72a.44.44,0,0,0,0-.77L36.28,29.68a.57.57,0,0,0-.46,0,.35.35,0,0,0-.23.34Z"/><path class="cls-1" d="M46.8,92.56A45.76,45.76,0,1,1,92.56,46.8,45.81,45.81,0,0,1,46.8,92.56ZM46.8,5A41.76,41.76,0,1,0,88.56,46.8,41.82,41.82,0,0,0,46.8,5Z"/></svg>