<svg id="Layer_1" data-name="Layer 1" xmlns="http://www.w3.org/2000/svg" viewBox="0 0 50 50"><defs><style>.cls-1{fill:none;stroke:#595a5c;stroke-miterlimit:10;stroke-width:1.81px;}.cls-2{fill:#595a5c;}</style></defs><title>Printing</title><rect class="cls-1" x="17.37" y="8.87" width="15.25" height="7.07"/><polyline class="cls-1" points="29.83 15.94 29.83 18.73 27.31 21.24 27.31 24.12 22.69 24.12 22.69 21.24 20.17 18.73 20.17 15.94"/><path class="cls-2" d="M22.83,35h0a3.06,3.06,0,0,1-.28-4L25,27.75,27.45,31a3.06,3.06,0,0,1-.28,4h0A3.08,3.08,0,0,1,22.83,35Z"/><path class="cls-1" d="M35.6,8.87h2.81a2,2,0,0,1,2,2V37.68a2,2,0,0,1-2,2H11.59a2,2,0,0,1-2-2V10.86a2,2,0,0,1,2-2H14.4"/></svg>